# xmcd CD database file
#
# Track frame offsets:
#	150
#	11107
#	20826
#	32341
#	43888
#	54492
#	65107
#	76956
#	87168
#	99465
#	109867
#	122719
#	132199
#	142258
#	154670
#	167255
#	177982
#	187904
#	198733
#	210440
#	221690
#	231804
#	243356
#	253683
#	264138
#
# Disc length: 3668 seconds
#
# Revision: 0
# Processed by: cddbd v1.4PL0 Copyright (c) Steve Scherf et al.
# Submitted via: CDex 1.50
#
DISCID=5e0e5219
DTITLE=Smiley Lewis - Shame, Shame, Shame [CD2 Of 4)
DYEAR=1993
DGENRE=Vintage R&B
TTITLE0=Big Mamou
TTITLE1=Play Girl
TTITLE2=I Love You For Sentimental Reasons
TTITLE3=Lying Woman
TTITLE4=Little Fernandez
TTITLE5=It's Music
TTITLE6=Show Me The Way
TTITLE7=Down The Road
TTITLE8=Blue Monday
TTITLE9=The Rocks
TTITLE10=That Certain Door
TTITLE11=Nobody Knows
TTITLE12=Can't Stop Loving You
TTITLE13=Ooh La La
TTITLE14=Too Many Drivers
TTITLE15=Lost Week End
TTITLE16=Jailbird
TTITLE17=Farewell
TTITLE18=Real Gone Lover
TTITLE19=Bumpity Bump
TTITLE20=I Can't Believe It
TTITLE21=I Hear You Knocking
TTITLE22=Hey Girl
TTITLE23=Come On
TTITLE24=Queen Of Hearts
EXTD=YEAR: 1993
EXTT0=
EXTT1=
EXTT2=
EXTT3=
EXTT4=
EXTT5=
EXTT6=
EXTT7=
EXTT8=
EXTT9=
EXTT10=
EXTT11=
EXTT12=
EXTT13=
EXTT14=
EXTT15=
EXTT16=
EXTT17=
EXTT18=
EXTT19=
EXTT20=
EXTT21=
EXTT22=
EXTT23=
EXTT24=
PLAYORDER=
